<svg xmlns="http://www.w3.org/2000/svg" viewBox="0 0 512 512"><style>.a{fill:#F2F2F2;}</style><path d="M256 0C114.6 0 0 114.6 0 256s114.6 256 256 256 256-114.6 256-256S397.4 0 256 0z" fill="#CE4234"/><path d="M256 486c-126.8 0-230-103.2-230-230S129.2 26 256 26c126.8 0 230 103.2 230 230S382.8 486 256 486z" fill="#E3513D"/><polygon points="472.2 237.8 472.2 274.2 431.5 274.2 431.5 314.9 395.1 314.9 395.1 274.2 354.4 274.2 354.4 237.8 395.1 237.8 395.1 197.1 431.5 197.1 431.5 237.8 " class="a"/><path d="M312 231.4c1.5 8 2.3 16.2 2.3 24.6 0 9.4-1 18.6-2.9 27.4 -12.6 59.4-65.4 104-128.5 104 -50.1 0-93.6-28-115.8-69.1 -10-18.5-15.7-39.7-15.7-62.3 0-72.6 58.8-131.4 131.4-131.4 31.9 0 61.1 11.4 83.9 30.3l-42.6 34.9c-12-7.5-26.1-11.8-41.3-11.8 -34.3 0-63.4 22.1-73.9 52.7 -2.7 8-4.2 16.5-4.2 25.4 0 9.6 1.7 18.9 5 27.4 11.1 29.6 39.7 50.7 73.2 50.7 14.4 0 27.9-3.9 39.5-10.7 15.4-9 27.4-23.1 33.7-40h-70.3v-52h71.3 54.9V231.4z" class="a"/></svg>