<svg xmlns="http://www.w3.org/2000/svg" viewBox="0 0 455.7 455.7"><rect width="455.7" height="455.7" fill="#50ABF1"/><path d="M60.4 337.8c30.3 19.2 66.3 30.4 104.9 30.4 108.3 0 196.2-87.8 196.2-196.2 0-2.7-0.1-5.4-0.2-8.1 3.9-3.1 28.2-22.5 34.1-35 0 0-19.7 8.2-38.9 10.1 0 0-0.1 0-0.1 0 0 0 0 0 0.1-0.1 1.8-1.2 26.6-18.1 30-38.2 0 0-13.9 7.4-33.4 13.9 -3.2 1.1-6.6 2.1-10.1 3.1 -12.6-13.4-30.4-21.8-50.2-21.8 -38 0-68.8 30.8-68.8 68.8 0 5.4 0.6 10.6 1.8 15.6 -5.3-0.2-86.2-4.8-141.3-71.4 0 0-32.9 44.9 19.6 91.1 0 0-16-0.6-29.7-8.9 0 0-5.1 54.4 54.4 68.3 0 0-11.7 4.4-30.4 1.3 0 0 10.4 44 63.3 48.1 0 0-41.8 37.7-101.1 28.9L60.4 337.8z" fill="#FFF"/></svg>